<svg width="512" height="512" viewBox="0 0 512 512" fill="none" xmlns="http://www.w3.org/2000/svg">
  <rect width="512" height="512" rx="136" fill="#2563EB"/>
  <path d="M256 88C188.621 88 134 142.621 134 210C134 298.878 238.917 412.667 249.083 423.5C252.819 427.458 259.181 427.458 262.917 423.5C273.083 412.667 378 298.878 378 210C378 142.621 323.379 88 256 88Z" fill="white"/>
  <circle cx="256" cy="210" r="54" fill="#2563EB"/>
  <path d="M344 336C389.287 336 426 365.997 426 403C426 440.003 389.287 470 344 470C315.312 470 290.073 457.958 275.242 439.56C267.373 444.031 256.727 446.781 245.167 446.781C215.041 446.781 190.625 428.011 190.625 404.859C190.625 381.707 215.041 362.937 245.167 362.937C253.127 362.937 260.694 364.262 267.535 366.651C282.349 348.273 310.894 336 344 336Z" fill="#DBEAFE"/>
</svg>
