<svg width="24" height="24" viewBox="0 0 24 24" fill="none" xmlns="http://www.w3.org/2000/svg">
  <path d="M17.9 14.7C16.9 15.2 15.8 15.5 14.6 15.5C10.5 15.5 7.2 12.2 7.2 8.1C7.2 6.9 7.5 5.8 8 4.8C5 6 3 8.9 3 12.2C3 16.7 6.7 20.4 11.2 20.4C14.5 20.4 17.3 18.5 18.6 15.6C18.4 15.3 18.1 15 17.9 14.7Z" fill="#2563EB"/>
  <path d="M18.1 4.2L18.5 5.4L19.7 5.8L18.5 6.2L18.1 7.4L17.7 6.2L16.5 5.8L17.7 5.4L18.1 4.2Z" fill="#2563EB"/>
  <path d="M14.8 2.5L15.1 3.4L16 3.7L15.1 4L14.8 4.9L14.5 4L13.6 3.7L14.5 3.4L14.8 2.5Z" fill="#60A5FA"/>
</svg>
