<svg width="24" height="24" viewBox="0 0 24 24" fill="none" xmlns="http://www.w3.org/2000/svg">
  <path d="M9 11.25C10.933 11.25 12.5 9.683 12.5 7.75C12.5 5.817 10.933 4.25 9 4.25C7.067 4.25 5.5 5.817 5.5 7.75C5.5 9.683 7.067 11.25 9 11.25Z" stroke="#2563EB" stroke-width="1.8" stroke-linecap="round" stroke-linejoin="round"/>
  <path d="M3.75 18.25C4.38 15.86 6.48 14.25 9 14.25C11.52 14.25 13.62 15.86 14.25 18.25" stroke="#2563EB" stroke-width="1.8" stroke-linecap="round" stroke-linejoin="round"/>
  <path d="M16.75 10.75C18.2698 10.75 19.5 9.51978 19.5 8C19.5 6.48022 18.2698 5.25 16.75 5.25" stroke="#2563EB" stroke-width="1.8" stroke-linecap="round" stroke-linejoin="round"/>
  <path d="M18.75 17.75C18.41 16.41 17.45 15.31 16.19 14.79" stroke="#2563EB" stroke-width="1.8" stroke-linecap="round" stroke-linejoin="round"/>
</svg>
